<svg xmlns="http://www.w3.org/2000/svg" width="42" height="42" viewBox="0 0 42 42" fill="none">
  <path d="M19.4269 20.8333L25.8332 27.2396L22.9165 30.2083L13.5415 20.8333L22.9165 11.4583L25.8332 14.4271L19.4269 20.8333ZM20.8332 41.6667C23.7151 41.6667 26.4235 41.1198 28.9582 40.026C31.4929 38.9323 33.6978 37.4479 35.5728 35.5729C37.4478 33.6979 38.9321 31.4931 40.0259 28.9583C41.1196 26.4236 41.6665 23.7153 41.6665 20.8333C41.6665 17.9514 41.1196 15.2431 40.0259 12.7083C38.9321 10.1736 37.4478 7.96875 35.5728 6.09375C33.6978 4.21875 31.4929 2.73438 28.9582 1.64063C26.4234 0.546878 23.7151 3.13872e-06 20.8332 3.64262e-06C17.9512 4.14651e-06 15.2429 0.54688 12.7082 1.64063C10.1734 2.73438 7.96858 4.21876 6.09358 6.09376C4.21858 7.96876 2.73421 10.1736 1.64046 12.7083C0.546714 15.2431 -0.000164708 17.9514 -0.000164204 20.8333C-0.0001637 23.7153 0.546716 26.4236 1.64047 28.9583C2.73422 31.4931 4.21859 33.6979 6.09359 35.5729C7.96859 37.4479 10.1735 38.9323 12.7082 40.026C15.2429 41.1198 17.9512 41.6667 20.8332 41.6667Z" fill="white" fill-opacity="0.8"/>
</svg>