<svg xmlns="http://www.w3.org/2000/svg" width="20" height="20" viewBox="0 0 20 20" fill="none">
  <path d="M7.00412 3.11372C6.75723 2.52305 6.11344 2.21053 5.50091 2.37616L5.32902 2.42304C3.31016 2.97308 1.58507 4.92947 2.08822 7.3109C3.24766 12.78 7.55102 17.0835 13.0201 18.2429C15.4046 18.7492 17.3578 17.021 17.9078 15.0021L17.9547 14.8302C18.1235 14.2145 17.8078 13.5707 17.2203 13.327L14.1795 12.0612C13.6639 11.8456 13.0669 11.9956 12.7107 12.43L11.5044 13.9051C9.30737 12.8144 7.53852 10.9893 6.52284 8.7485L7.90416 7.62342C8.33856 7.27027 8.48545 6.67335 8.27293 6.15456L7.00412 3.11372Z" fill="black"/>
</svg>