<svg xmlns="http://www.w3.org/2000/svg" width="20" height="20" viewBox="0 0 20 20" fill="none">
  <path d="M3.5 4.33203C2.67188 4.33203 2 5.00391 2 5.83203C2 6.30391 2.22188 6.74766 2.6 7.03203L9.1 11.907C9.63438 12.307 10.3656 12.307 10.9 11.907L17.4 7.03203C17.7781 6.74766 18 6.30391 18 5.83203C18 5.00391 17.3281 4.33203 16.5 4.33203H3.5ZM2 8.45703V14.332C2 15.4352 2.89688 16.332 4 16.332H16C17.1031 16.332 18 15.4352 18 14.332V8.45703L11.8 13.107C10.7344 13.907 9.26562 13.907 8.2 13.107L2 8.45703Z" fill="black"/>
</svg>