<svg xmlns="http://www.w3.org/2000/svg" width="20" height="20" viewBox="0 0 20 20" fill="none">
  <path d="M7 4.33203V6.83203H9V4.33203H13.5844L15 5.74766V6.83203H17V5.74766C17 5.21641 16.7906 4.70703 16.4156 4.33203L15 2.91641C14.625 2.54141 14.1156 2.33203 13.5844 2.33203H9C7.89687 2.33203 7 3.22891 7 4.33203ZM3 6.33203C2.44687 6.33203 2 6.77891 2 7.33203V16.332C2 16.8852 2.44687 17.332 3 17.332H4.5C5.05312 17.332 5.5 16.8852 5.5 16.332V7.33203C5.5 6.77891 5.05312 6.33203 4.5 6.33203H3ZM17 8.33203H7V16.332C7 16.8852 7.44688 17.332 8 17.332H17C17.5531 17.332 18 16.8852 18 16.332V9.33203C18 8.77891 17.5531 8.33203 17 8.33203ZM9 11.332C9 11.1331 9.07902 10.9424 9.21967 10.8017C9.36032 10.661 9.55109 10.582 9.75 10.582C9.94891 10.582 10.1397 10.661 10.2803 10.8017C10.421 10.9424 10.5 11.1331 10.5 11.332C10.5 11.5309 10.421 11.7217 10.2803 11.8624C10.1397 12.003 9.94891 12.082 9.75 12.082C9.55109 12.082 9.36032 12.003 9.21967 11.8624C9.07902 11.7217 9 11.5309 9 11.332ZM9 14.332C9 14.1331 9.07902 13.9424 9.21967 13.8017C9.36032 13.661 9.55109 13.582 9.75 13.582C9.94891 13.582 10.1397 13.661 10.2803 13.8017C10.421 13.9424 10.5 14.1331 10.5 14.332C10.5 14.5309 10.421 14.7217 10.2803 14.8624C10.1397 15.003 9.94891 15.082 9.75 15.082C9.55109 15.082 9.36032 15.003 9.21967 14.8624C9.07902 14.7217 9 14.5309 9 14.332ZM12.5 10.582C12.6989 10.582 12.8897 10.661 13.0303 10.8017C13.171 10.9424 13.25 11.1331 13.25 11.332C13.25 11.5309 13.171 11.7217 13.0303 11.8624C12.8897 12.003 12.6989 12.082 12.5 12.082C12.3011 12.082 12.1103 12.003 11.9697 11.8624C11.829 11.7217 11.75 11.5309 11.75 11.332C11.75 11.1331 11.829 10.9424 11.9697 10.8017C12.1103 10.661 12.3011 10.582 12.5 10.582ZM11.75 14.332C11.75 14.1331 11.829 13.9424 11.9697 13.8017C12.1103 13.661 12.3011 13.582 12.5 13.582C12.6989 13.582 12.8897 13.661 13.0303 13.8017C13.171 13.9424 13.25 14.1331 13.25 14.332C13.25 14.5309 13.171 14.7217 13.0303 14.8624C12.8897 15.003 12.6989 15.082 12.5 15.082C12.3011 15.082 12.1103 15.003 11.9697 14.8624C11.829 14.7217 11.75 14.5309 11.75 14.332ZM15.25 10.582C15.4489 10.582 15.6397 10.661 15.7803 10.8017C15.921 10.9424 16 11.1331 16 11.332C16 11.5309 15.921 11.7217 15.7803 11.8624C15.6397 12.003 15.4489 12.082 15.25 12.082C15.0511 12.082 14.8603 12.003 14.7197 11.8624C14.579 11.7217 14.5 11.5309 14.5 11.332C14.5 11.1331 14.579 10.9424 14.7197 10.8017C14.8603 10.661 15.0511 10.582 15.25 10.582ZM14.5 14.332C14.5 14.1331 14.579 13.9424 14.7197 13.8017C14.8603 13.661 15.0511 13.582 15.25 13.582C15.4489 13.582 15.6397 13.661 15.7803 13.8017C15.921 13.9424 16 14.1331 16 14.332C16 14.5309 15.921 14.7217 15.7803 14.8624C15.6397 15.003 15.4489 15.082 15.25 15.082C15.0511 15.082 14.8603 15.003 14.7197 14.8624C14.579 14.7217 14.5 14.5309 14.5 14.332Z" fill="black"/>
</svg>