<svg xmlns="http://www.w3.org/2000/svg" width="20" height="20" viewBox="0 0 20 20" fill="none">
  <path d="M12.9973 10.582H7.00589C7.0969 12.5977 7.5457 14.4539 8.18282 15.8133C8.5406 16.5789 8.92664 17.1195 9.28443 17.4508C9.63594 17.7789 9.8776 17.832 10.0031 17.832C10.1287 17.832 10.3703 17.7789 10.7219 17.4508C11.0796 17.1195 11.4657 16.5758 11.8235 15.8133C12.4606 14.4539 12.9094 12.5977 13.0004 10.582H12.9973ZM7.00275 9.08203H12.9941C12.9062 7.06641 12.4574 5.21016 11.8203 3.85078C11.4625 3.08828 11.0765 2.54453 10.7187 2.21328C10.3672 1.88516 10.1255 1.83203 10 1.83203C9.87446 1.83203 9.6328 1.88516 9.28129 2.21328C8.9235 2.54453 8.53747 3.08828 8.17968 3.85078C7.54257 5.21016 7.09376 7.06641 7.00275 9.08203ZM5.49627 9.08203C5.60612 6.40703 6.29973 3.92266 7.31346 2.29141C4.42291 3.31016 2.29502 5.93203 2 9.08203H5.49627ZM2 10.582C2.29502 13.732 4.42291 16.3539 7.31346 17.3727C6.29973 15.7414 5.60612 13.257 5.49627 10.582H2ZM14.5037 10.582C14.3939 13.257 13.7003 15.7414 12.6865 17.3727C15.5771 16.3508 17.705 13.732 18 10.582H14.5037ZM18 9.08203C17.705 5.93203 15.5771 3.31016 12.6865 2.29141C13.7003 3.92266 14.3939 6.40703 14.5037 9.08203H18Z" fill="black"/>
</svg>