<svg xmlns="http://www.w3.org/2000/svg" width="18" height="18" viewBox="0 0 18 18" fill="none">
  <g clip-path="url(#clip0_10115_2478)">
    <path d="M4.18901 5.79077H0.575479C0.415105 5.79077 0.285156 5.92078 0.285156 6.08109V17.6898C0.285156 17.8502 0.415105 17.9801 0.575479 17.9801H4.18901C4.34938 17.9801 4.47933 17.8502 4.47933 17.6898V6.08109C4.47933 5.92078 4.34938 5.79077 4.18901 5.79077Z" fill="#FEBE10"/>
    <path d="M2.38448 0.0197754C1.06966 0.0197754 0 1.08828 0 2.40164C0 3.71558 1.06966 4.78449 2.38448 4.78449C3.69825 4.78449 4.76704 3.71552 4.76704 2.40164C4.7671 1.08828 3.69825 0.0197754 2.38448 0.0197754Z" fill="#FEBE10"/>
    <path d="M13.3822 5.5022C11.9308 5.5022 10.858 6.1261 10.2072 6.83501V6.08104C10.2072 5.92073 10.0773 5.79072 9.91693 5.79072H6.45634C6.29596 5.79072 6.16602 5.92073 6.16602 6.08104V17.6898C6.16602 17.8501 6.29596 17.9801 6.45634 17.9801H10.062C10.2223 17.9801 10.3523 17.8501 10.3523 17.6898V11.9461C10.3523 10.0107 10.878 9.25665 12.2272 9.25665C13.6966 9.25665 13.8133 10.4654 13.8133 12.0457V17.6898C13.8133 17.8502 13.9433 17.9801 14.1037 17.9801H17.7106C17.871 17.9801 18.001 17.8502 18.001 17.6898V11.3222C18.001 8.44427 17.4522 5.5022 13.3822 5.5022Z" fill="#FEBE10"/>
  </g>
  <defs>
    <clipPath id="clip0_10115_2478">
      <rect width="18" height="18" fill="white"/>
    </clipPath>
  </defs>
</svg>