<svg xmlns="http://www.w3.org/2000/svg" width="20" height="20" viewBox="0 0 20 20" fill="none">
  <path d="M11.5 11.2195C13.5031 10.7664 15 8.97266 15 6.83203C15 4.34766 12.9844 2.33203 10.5 2.33203C8.01562 2.33203 6 4.34766 6 6.83203C6 8.97266 7.49688 10.7664 9.5 11.2195V17.332C9.5 17.8852 9.94688 18.332 10.5 18.332C11.0531 18.332 11.5 17.8852 11.5 17.332V11.2195ZM10.75 5.33203C9.78437 5.33203 9 6.11641 9 7.08203C9 7.49766 8.66563 7.83203 8.25 7.83203C7.83438 7.83203 7.5 7.49766 7.5 7.08203C7.5 5.28828 8.95625 3.83203 10.75 3.83203C11.1656 3.83203 11.5 4.16641 11.5 4.58203C11.5 4.99766 11.1656 5.33203 10.75 5.33203Z" fill="black"/>
</svg>