<svg xmlns="http://www.w3.org/2000/svg" width="145" height="84" viewBox="0 0 145 84" fill="none">
  <g clip-path="url(#clip0_10115_36)">
    <path d="M138.652 0H6.21748C2.78366 0 0 2.74784 0 6.13748V77.8625C0 81.2522 2.78366 84 6.21748 84H138.652C142.086 84 144.87 81.2522 144.87 77.8625V6.13748C144.87 2.74784 142.086 0 138.652 0Z" fill="#003055"/>
    <path d="M23.5628 60.0194C23.7715 59.873 23.9363 59.6886 24.0571 59.4609C24.178 59.2386 24.2384 58.9675 24.2384 58.6693C24.2384 58.382 24.189 58.138 24.0901 57.9428C23.9912 57.7476 23.8429 57.5741 23.6507 57.4386C23.464 57.303 23.2333 57.1892 22.9696 57.097C22.706 57.0048 22.4094 56.9235 22.0853 56.8585C21.8052 56.7934 21.5636 56.7338 21.3548 56.6741C21.1516 56.6199 20.9814 56.5494 20.8495 56.4735C20.7177 56.3976 20.6243 56.3109 20.5639 56.2078C20.5035 56.1048 20.4706 55.9747 20.4706 55.812C20.4706 55.5138 20.5804 55.2807 20.7946 55.1072C21.0088 54.9337 21.3603 54.847 21.8382 54.847C22.0194 54.847 22.2007 54.8632 22.371 54.9012C22.5412 54.9391 22.7005 54.9879 22.8433 55.0476C22.9861 55.1072 23.1179 55.1723 23.2333 55.2482C23.3486 55.3241 23.4365 55.4 23.5079 55.4759L23.5518 55.5247L23.9748 54.7982L23.9418 54.7711C23.6727 54.5542 23.3651 54.3807 23.0191 54.2506C22.673 54.1204 22.2831 54.0554 21.8547 54.0554C21.5306 54.0554 21.223 54.0933 20.9429 54.1747C20.6628 54.256 20.4156 54.3753 20.2124 54.5379C20.0092 54.6952 19.8444 54.8958 19.7291 55.1289C19.6137 55.362 19.5588 55.6331 19.5588 55.9313C19.5588 56.1807 19.6027 56.3976 19.6851 56.5765C19.773 56.7554 19.8993 56.9127 20.0641 57.0374C20.2289 57.1621 20.4376 57.2705 20.6793 57.3573C20.9209 57.444 21.2065 57.5253 21.5251 57.6012C21.8052 57.6663 22.0634 57.7368 22.2941 57.8073C22.5138 57.8723 22.706 57.9482 22.8543 58.035C23.0026 58.1163 23.1124 58.2193 23.1893 58.3278C23.2607 58.4362 23.2992 58.5772 23.2992 58.7398C23.2992 59.038 23.1838 59.2549 22.9477 59.4067C22.7115 59.5585 22.3655 59.6344 21.9316 59.6344C21.6954 59.6344 21.4647 59.6073 21.2505 59.5639C21.0363 59.5151 20.8276 59.4501 20.6408 59.3742C20.4541 59.2983 20.2838 59.2115 20.1355 59.1139C19.9872 59.0163 19.8719 58.9187 19.7785 58.8266L19.7346 58.7832L19.3062 59.5314L19.3391 59.5585C19.6961 59.8459 20.0971 60.0682 20.531 60.2146C20.9649 60.3609 21.4317 60.4368 21.9206 60.4368C22.2446 60.4368 22.5522 60.4043 22.8323 60.3338C23.1124 60.2633 23.3596 60.1603 23.5683 60.0139L23.5628 60.0194Z" fill="white"/>
    <path d="M30.5986 54.1042H25.3862V54.8958H27.5503V60.3826H28.4346V54.8958H30.5986V54.1042Z" fill="white"/>
    <path d="M34.2899 54.1042H33.5758L30.9889 60.3176L30.9614 60.3826H31.9116L32.6421 58.5717H35.2071L35.9376 60.3555L35.9486 60.3826H36.8988L34.3063 54.1367L34.2954 54.1096L34.2899 54.1042ZM34.9874 57.8669H32.8344L33.9274 55.1831L34.9874 57.8669Z" fill="white"/>
    <path d="M39.4032 60.3826H40.293V54.8958H42.4515V54.1042H37.2446V54.8958H39.4032V60.3826Z" fill="white"/>
    <path d="M48.449 59.591H44.9943V57.5524H47.9327V56.8042H44.9943V54.8958H48.3721V54.1042H44.1045V60.3826H48.449V59.591Z" fill="white"/>
    <path d="M58.1268 59.4663C58.3904 59.179 58.5992 58.8374 58.7529 58.4579C58.9067 58.0784 58.9836 57.6717 58.9836 57.2542C58.9836 56.8639 58.9122 56.4735 58.7694 56.094C58.6266 55.7145 58.4234 55.3729 58.1598 55.0747C57.8961 54.7765 57.583 54.5271 57.2205 54.3427C56.858 54.1584 56.4461 54.0608 56.0012 54.0608C55.5563 54.0608 55.1718 54.1476 54.8038 54.3211C54.4359 54.4946 54.1173 54.7331 53.8482 55.0259C53.579 55.3187 53.3703 55.6602 53.2165 56.0398C53.0627 56.4193 52.9858 56.8259 52.9858 57.2434C52.9858 57.6609 53.0572 58.035 53.2 58.4199C53.3429 58.7995 53.5461 59.1465 53.8097 59.4392C54.0734 59.7374 54.3864 59.976 54.7544 60.1549C55.1224 60.3338 55.5343 60.426 55.9792 60.426C56.4241 60.426 56.8086 60.3393 57.1766 60.1658C57.5446 59.9923 57.8632 59.7591 58.1268 59.4663ZM58.0829 57.2434C58.0829 57.5362 58.0334 57.8235 57.9401 58.1109C57.8467 58.3928 57.7039 58.6531 57.5226 58.8754C57.3414 59.0977 57.1217 59.282 56.8635 59.423C56.6054 59.5585 56.3088 59.629 55.9847 59.629C55.6607 59.629 55.3806 59.5639 55.1224 59.4338C54.8643 59.3037 54.6391 59.1248 54.4578 58.9079C54.2711 58.6856 54.1283 58.4308 54.0294 58.1434C53.9305 57.8561 53.8756 57.5579 53.8756 57.2488C53.8756 56.9398 53.9251 56.6579 54.0239 56.3759C54.1228 56.094 54.2601 55.8392 54.4413 55.6169C54.6226 55.3946 54.8423 55.2156 55.1004 55.0801C55.3586 54.9446 55.6497 54.8741 55.9792 54.8741C56.2868 54.8741 56.5724 54.9391 56.8251 55.0693C57.0832 55.1994 57.3029 55.3783 57.4897 55.5952C57.6764 55.812 57.8192 56.0669 57.9236 56.3542C58.0224 56.6416 58.0774 56.9398 58.0774 57.2488L58.0829 57.2434Z" fill="white"/>
    <path d="M60.835 60.3826H61.7247V57.6121H64.5369V56.8639H61.7247V54.8958H65.0697V54.1042H60.835V60.3826Z" fill="white"/>
    <path d="M74.4835 60.3826H75.2305L77.8614 54.1692L77.8889 54.1042H76.9222L74.835 59.3037L73.8134 56.8801L74.9174 54.1421H74.0661L73.2587 56.2078L72.4733 54.1692L72.4623 54.1421H71.611L72.7149 56.8801L71.6988 59.3037L69.6062 54.1042H68.645L71.2869 60.3501L71.2979 60.3826H72.0449L73.2697 57.5362L74.4835 60.3826Z" fill="white"/>
    <path d="M80.3219 54.115H79.4321V60.3826H80.3219V54.115Z" fill="white"/>
    <path d="M86.4186 57.4386C86.2319 57.303 86.0012 57.1892 85.7376 57.097C85.4739 57.0048 85.1773 56.9235 84.8533 56.8585C84.5732 56.7934 84.3315 56.7338 84.1228 56.6741C83.9251 56.6199 83.7548 56.5494 83.6175 56.4735C83.4857 56.3976 83.3923 56.3109 83.3319 56.2078C83.2715 56.1048 83.2385 55.9747 83.2385 55.812C83.2385 55.5138 83.3484 55.2807 83.5626 55.1072C83.7768 54.9337 84.1283 54.847 84.6061 54.847C84.7874 54.847 84.9686 54.8632 85.1389 54.9012C85.3092 54.9391 85.4684 54.9879 85.6112 55.0476C85.7541 55.1072 85.8859 55.1723 86.0012 55.2482C86.1166 55.3241 86.2044 55.4 86.2758 55.4759L86.3198 55.5247L86.7427 54.7982L86.7097 54.7711C86.4406 54.5542 86.133 54.3807 85.787 54.2506C85.441 54.1204 85.051 54.0554 84.6226 54.0554C84.2986 54.0554 83.991 54.0933 83.7109 54.1747C83.4307 54.256 83.1836 54.3753 82.9804 54.5379C82.7771 54.7006 82.6124 54.8958 82.5025 55.1289C82.3872 55.362 82.3322 55.6331 82.3322 55.9313C82.3322 56.1807 82.3762 56.3976 82.4586 56.5765C82.5465 56.7554 82.6728 56.9127 82.8376 57.0374C83.0023 57.1621 83.211 57.2705 83.4527 57.3573C83.6944 57.444 83.98 57.5253 84.2985 57.6012C84.5787 57.6663 84.8368 57.7368 85.0675 57.8073C85.2872 57.8723 85.4794 57.9482 85.6277 58.035C85.776 58.1163 85.8859 58.2193 85.9628 58.3278C86.0397 58.4362 86.0726 58.5772 86.0726 58.7398C86.0726 59.038 85.9573 59.2549 85.7211 59.4067C85.4849 59.5585 85.1389 59.6344 84.705 59.6344C84.4688 59.6344 84.2381 59.6073 84.0239 59.5639C83.8097 59.5151 83.601 59.4501 83.4143 59.3742C83.2275 59.2983 83.0572 59.2115 82.909 59.1139C82.7607 59.0163 82.6453 58.9187 82.5519 58.8266L82.508 58.7832L82.0796 59.5314L82.1125 59.5585C82.4696 59.8459 82.8705 60.0682 83.3044 60.2146C83.7383 60.3609 84.2052 60.4368 84.6885 60.4368C85.0126 60.4368 85.3202 60.4043 85.6003 60.3338C85.8804 60.2633 86.1275 60.1549 86.3363 60.0139C86.545 59.8676 86.7097 59.6832 86.8306 59.4555C86.9514 59.2332 87.0118 58.9621 87.0118 58.6639C87.0118 58.3766 86.9624 58.1326 86.8635 57.9374C86.7647 57.7422 86.6164 57.5687 86.4241 57.4332L86.4186 57.4386Z" fill="white"/>
    <path d="M92.1475 60.3338C92.4001 60.2688 92.6473 60.1766 92.878 60.0519C93.1087 59.9272 93.3174 59.7754 93.4986 59.5965C93.6799 59.4175 93.8282 59.2061 93.927 58.9675L93.9435 58.9296L93.202 58.5284L93.1801 58.5717C93.0922 58.7561 92.9823 58.9187 92.8505 59.0489C92.7132 59.1844 92.5704 59.2928 92.4166 59.3796C92.2628 59.4663 92.0981 59.5314 91.9333 59.5694C91.439 59.6832 90.9831 59.6344 90.5931 59.4338C90.335 59.3037 90.1098 59.1248 89.9175 58.9079C89.7308 58.6856 89.577 58.4308 89.4726 58.1434C89.3683 57.8561 89.3134 57.5524 89.3134 57.2326C89.3134 56.9506 89.3573 56.6633 89.4452 56.3813C89.5331 56.0994 89.6704 55.8446 89.8461 55.6223C90.0219 55.4 90.2471 55.2156 90.5052 55.0747C90.7634 54.9391 91.0655 54.8686 91.406 54.8686C91.5598 54.8686 91.7191 54.8849 91.8838 54.9174C92.0431 54.95 92.2024 55.0096 92.3507 55.0855C92.5045 55.1668 92.6418 55.2699 92.7736 55.4C92.9 55.5301 93.0098 55.6928 93.1032 55.8825L93.1251 55.9313L93.8282 55.4813L93.8117 55.4434C93.614 55.0367 93.3119 54.7006 92.9054 54.4512C92.499 54.1963 92.0102 54.0716 91.4444 54.0716C90.9666 54.0716 90.5382 54.1638 90.1647 54.3482C89.7912 54.5325 89.4672 54.7711 89.209 55.0693C88.9509 55.362 88.7531 55.7036 88.6158 56.0777C88.484 56.4518 88.4126 56.8259 88.4126 57.2054C88.4126 57.6067 88.484 58.0025 88.6323 58.382C88.7751 58.7669 88.9838 59.1139 89.2475 59.4175C89.5111 59.7212 89.8297 59.9706 90.1922 60.1549C90.5547 60.3447 90.9611 60.4368 91.395 60.4368C91.6367 60.4368 91.8893 60.4043 92.1475 60.3393V60.3338Z" fill="white"/>
    <path d="M99.4032 60.1658C99.7712 59.9923 100.09 59.7591 100.353 59.4663C100.617 59.179 100.826 58.8374 100.98 58.4579C101.133 58.0784 101.21 57.6717 101.21 57.2542C101.21 56.8639 101.139 56.4735 100.996 56.094C100.853 55.7145 100.65 55.3729 100.386 55.0747C100.123 54.7765 99.8096 54.5271 99.4471 54.3427C99.0846 54.1584 98.6727 54.0608 98.2278 54.0608C97.7829 54.0608 97.3984 54.1476 97.0304 54.3211C96.6624 54.4946 96.3438 54.7331 96.0747 55.0259C95.8056 55.3187 95.5969 55.6602 95.4431 56.0398C95.2893 56.4193 95.2124 56.8259 95.2124 57.2434C95.2124 57.6609 95.2838 58.035 95.4266 58.4199C95.5694 58.7995 95.7726 59.141 96.0363 59.4392C96.2999 59.7374 96.613 59.976 96.981 60.1549C97.349 60.3338 97.7609 60.426 98.2058 60.426C98.6507 60.426 99.0352 60.3393 99.4032 60.1658ZM97.3545 59.4338C97.0963 59.3037 96.8766 59.1248 96.6899 58.9079C96.5031 58.6856 96.3603 58.4308 96.2615 58.1434C96.1626 57.8561 96.1077 57.5579 96.1077 57.2488C96.1077 56.9398 96.1571 56.6579 96.256 56.3759C96.3548 56.094 96.4921 55.8392 96.6734 55.6169C96.8546 55.3946 97.0744 55.2156 97.3325 55.0801C97.5906 54.9446 97.8817 54.8741 98.2113 54.8741C98.5189 54.8741 98.8045 54.9391 99.0571 55.0693C99.3153 55.1994 99.535 55.3783 99.7217 55.5952C99.9085 55.812 100.051 56.0669 100.156 56.3542C100.254 56.6416 100.309 56.9398 100.309 57.2488C100.309 57.5416 100.26 57.829 100.167 58.1163C100.073 58.3983 99.9304 58.6585 99.7492 58.8808C99.5679 59.1031 99.3482 59.2874 99.0901 59.4284C98.8319 59.5639 98.5353 59.6344 98.2113 59.6344C97.8872 59.6344 97.6071 59.5694 97.349 59.4392L97.3545 59.4338Z" fill="white"/>
    <path d="M107.708 60.3826H108.449V54.115H107.559V58.8374L103.764 54.1259L103.748 54.1042H103.061V60.3826H103.951V55.747L107.691 60.3664L107.708 60.3826Z" fill="white"/>
    <path d="M113.722 60.3393C114.002 60.2688 114.249 60.1603 114.458 60.0194C114.666 59.873 114.831 59.6886 114.952 59.4609C115.073 59.2386 115.133 58.9675 115.133 58.6693C115.133 58.382 115.084 58.138 114.985 57.9428C114.886 57.7476 114.738 57.5741 114.546 57.4386C114.359 57.303 114.128 57.1892 113.865 57.097C113.601 57.0048 113.304 56.9235 112.98 56.8585C112.7 56.7934 112.458 56.7338 112.25 56.6741C112.052 56.6199 111.882 56.5494 111.744 56.4735C111.613 56.3976 111.519 56.3109 111.459 56.2078C111.398 56.1048 111.365 55.9747 111.365 55.812C111.365 55.5138 111.475 55.2807 111.69 55.1072C111.904 54.9337 112.255 54.847 112.733 54.847C112.914 54.847 113.096 54.8632 113.266 54.9012C113.436 54.9391 113.595 54.9879 113.738 55.0476C113.881 55.1072 114.013 55.1723 114.128 55.2482C114.244 55.3241 114.331 55.4 114.403 55.4759L114.447 55.5247L114.87 54.7982L114.837 54.7711C114.568 54.5542 114.26 54.3807 113.914 54.2506C113.568 54.1204 113.178 54.0554 112.75 54.0554C112.426 54.0554 112.118 54.0933 111.838 54.1747C111.558 54.256 111.311 54.3753 111.107 54.5379C110.904 54.7006 110.739 54.8958 110.629 55.1289C110.514 55.362 110.459 55.6331 110.459 55.9313C110.459 56.1807 110.503 56.3976 110.586 56.5765C110.673 56.7554 110.8 56.9127 110.965 57.0374C111.129 57.1621 111.338 57.2705 111.58 57.3573C111.821 57.444 112.107 57.5253 112.426 57.6012C112.706 57.6663 112.964 57.7368 113.194 57.8073C113.414 57.8723 113.606 57.9482 113.755 58.035C113.903 58.1163 114.013 58.2193 114.09 58.3278C114.167 58.4362 114.2 58.5772 114.2 58.7398C114.2 59.038 114.084 59.2549 113.848 59.4067C113.612 59.5585 113.266 59.6344 112.832 59.6344C112.596 59.6344 112.365 59.6073 112.151 59.5639C111.937 59.5206 111.728 59.4501 111.541 59.3742C111.354 59.2983 111.184 59.2115 111.036 59.1139C110.888 59.0163 110.772 58.9187 110.679 58.8266L110.635 58.7832L110.207 59.5314L110.24 59.5585C110.597 59.8459 110.997 60.0682 111.431 60.2146C111.865 60.3609 112.332 60.4368 112.815 60.4368C113.14 60.4368 113.447 60.4043 113.727 60.3338L113.722 60.3393Z" fill="white"/>
    <path d="M117.825 54.115H116.935V60.3826H117.825V54.115Z" fill="white"/>
    <path d="M124.564 54.115V58.8374L120.768 54.1259L120.757 54.1042H120.065V60.3826H120.955V55.747L124.701 60.3664L124.712 60.3826H125.454V54.115H124.564Z" fill="white"/>
    <path d="M20.3004 63.3375H19.3667V69.9467H20.3004V63.3375Z" fill="white"/>
    <path d="M27.4184 68.3256L23.4034 63.3484L23.3924 63.3267H22.6729V69.9467H23.6011V65.0508L27.5612 69.9304L27.5721 69.9467H28.3521V63.3375H27.4184V68.3256Z" fill="white"/>
    <path d="M33.1251 68.7322L30.983 63.3592L30.9666 63.3267H29.9834L32.7187 69.9196L32.7296 69.9467H33.5206L36.2283 63.3917L36.2558 63.3267H35.2727L33.1251 68.7322Z" fill="white"/>
    <path d="M38.8317 66.9593H41.9294V66.1785H38.8317V64.1562H42.3963V63.3267H37.8979V69.9467H42.4787V69.1172H38.8317V66.9593Z" fill="white"/>
    <path d="M48.4218 66.8508C48.2241 66.7099 47.9824 66.5852 47.7023 66.493C47.4277 66.4008 47.1146 66.3141 46.7741 66.2382C46.4775 66.1731 46.2193 66.1081 46.0051 66.0484C45.7909 65.9888 45.6151 65.9183 45.4723 65.837C45.335 65.7611 45.2307 65.6635 45.1702 65.555C45.1043 65.4466 45.0769 65.3056 45.0769 65.1376C45.0769 64.8177 45.1867 64.5737 45.4174 64.3948C45.6481 64.2104 46.0161 64.1183 46.5159 64.1183C46.7081 64.1183 46.9004 64.1399 47.0761 64.1779C47.2574 64.2158 47.4277 64.2701 47.576 64.3297C47.7297 64.3948 47.8671 64.4652 47.9879 64.5412C48.1087 64.6171 48.2076 64.6984 48.2735 64.7797L48.3174 64.8285L48.7623 64.064L48.7294 64.0369C48.4493 63.8092 48.1197 63.6249 47.7572 63.4893C47.3947 63.3538 46.9828 63.2833 46.5324 63.2833C46.1864 63.2833 45.8623 63.3267 45.5712 63.408C45.2746 63.4893 45.0165 63.6194 44.8023 63.7875C44.588 63.9556 44.4178 64.167 44.2969 64.411C44.1761 64.655 44.1157 64.9424 44.1157 65.2568C44.1157 65.5225 44.1596 65.7502 44.253 65.94C44.3409 66.1297 44.4782 66.2924 44.654 66.4279C44.8297 66.5581 45.0439 66.6719 45.3021 66.7641C45.5602 66.8563 45.8623 66.943 46.1918 67.0243C46.4884 67.0948 46.7631 67.1707 47.0047 67.2412C47.2409 67.3117 47.4386 67.393 47.5924 67.4798C47.7462 67.5665 47.8671 67.675 47.9439 67.7888C48.0208 67.9081 48.0593 68.0545 48.0593 68.228C48.0593 68.5479 47.9385 68.7756 47.6913 68.9328C47.4386 69.09 47.0761 69.1714 46.6203 69.1714C46.3676 69.1714 46.1259 69.1443 45.9007 69.0955C45.6701 69.0467 45.4559 68.9762 45.2581 68.8949C45.0604 68.8135 44.8791 68.7214 44.7254 68.6183C44.5716 68.5153 44.4452 68.4123 44.3464 68.3147L44.3024 68.2714L43.8521 69.0575L43.885 69.0846C44.2585 69.3882 44.6814 69.6214 45.1428 69.7786C45.6042 69.9358 46.093 70.0172 46.6038 70.0172C46.9443 70.0172 47.2684 69.9792 47.565 69.9087C47.8616 69.8383 48.1197 69.7244 48.3394 69.5726C48.5591 69.4208 48.7349 69.2202 48.8612 68.987C48.9875 68.7539 49.0534 68.472 49.0534 68.1521C49.0534 67.8539 48.9985 67.5936 48.8941 67.3876C48.7898 67.1816 48.636 67.0027 48.4328 66.8563L48.4218 66.8508Z" fill="white"/>
    <path d="M50.2617 64.1562H52.5411V69.9467H53.4748V64.1562H55.7542V63.3267H50.2617V64.1562Z" fill="white"/>
    <path d="M60.8239 67.5177L58.4731 63.3538L58.4622 63.3267H57.501V69.9467H58.4347V65.0345L60.5548 68.7485L60.5658 68.7702H61.0985L63.2186 65.0345V69.9467H64.1524V63.3267H63.2022L60.8239 67.5177Z" fill="white"/>
    <path d="M67.4531 66.9593H70.5564V66.1785H67.4531V64.1562H71.0177V63.3267H66.5249V69.9467H71.1056V69.1172H67.4531V66.9593Z" fill="white"/>
    <path d="M77.834 68.3256L73.819 63.3484L73.808 63.3267H73.083V69.9467H74.0167V65.0508L77.9713 69.9304L77.9878 69.9467H78.7622V63.3375H77.834V68.3256Z" fill="white"/>
    <path d="M80.5142 64.1562H82.7935V69.9467H83.7273V64.1562H86.0066V63.3267H80.5142V64.1562Z" fill="white"/>
    <path d="M94.7396 66.5472C95.0033 66.4117 95.2065 66.2165 95.3603 65.9617C95.5305 65.6797 95.6129 65.3707 95.6129 65.04C95.6129 64.8339 95.5745 64.6279 95.5031 64.4219C95.4317 64.2213 95.3273 64.0369 95.1955 63.8743C95.0637 63.717 94.8989 63.5815 94.7067 63.4839C94.5144 63.3809 94.2947 63.3321 94.0585 63.3321H90.7246V69.9467H93.9102C94.1794 69.9467 94.4375 69.9033 94.6737 69.8274C94.9099 69.7461 95.1241 69.6268 95.2998 69.4804C95.4811 69.3286 95.6239 69.1443 95.7283 68.9328C95.8326 68.7214 95.8875 68.4774 95.8875 68.2226C95.8875 67.8105 95.7722 67.4472 95.547 67.1436C95.3438 66.8671 95.0692 66.6719 94.7341 66.5526L94.7396 66.5472ZM94.6133 65.5876C94.5639 65.7123 94.4925 65.8261 94.4101 65.9183C94.3222 66.0105 94.2233 66.0864 94.1025 66.1406C93.9817 66.1948 93.8553 66.2219 93.7125 66.2219H91.6583V64.1345H93.7729C93.9048 64.1345 94.0256 64.1616 94.1409 64.2104C94.2563 64.2646 94.3551 64.3351 94.432 64.4273C94.5144 64.5195 94.5748 64.6333 94.6243 64.7634C94.6737 64.8936 94.6957 65.0345 94.6957 65.1809C94.6957 65.3273 94.6682 65.4574 94.6188 65.5821L94.6133 65.5876ZM94.9483 68.0707C94.9483 68.2117 94.9209 68.3473 94.8659 68.4774C94.811 68.6075 94.7396 68.7214 94.6407 68.8135C94.5474 68.9111 94.432 68.987 94.3112 69.0467C94.1849 69.1063 94.0476 69.1334 93.9048 69.1334H91.6528V66.9864H93.9707C94.1135 66.9864 94.2398 67.0135 94.3606 67.0731C94.4815 67.1328 94.5803 67.2141 94.6682 67.3117C94.7561 67.4093 94.822 67.5286 94.8714 67.6587C94.9209 67.7942 94.9483 67.9298 94.9483 68.0707Z" fill="white"/>
    <path d="M102.907 64.346C102.633 64.0315 102.297 63.7713 101.913 63.5761C101.529 63.3809 101.095 63.2833 100.628 63.2833C100.161 63.2833 99.749 63.3755 99.3645 63.5598C98.98 63.7441 98.6395 63.9935 98.3594 64.3026C98.0793 64.6116 97.8541 64.9695 97.6948 65.3707C97.5355 65.7719 97.4531 66.2002 97.4531 66.6394C97.4531 67.0786 97.53 67.4743 97.6783 67.8756C97.8266 68.2768 98.0463 68.64 98.3209 68.9491C98.5956 69.2635 98.9306 69.5129 99.3151 69.7027C99.6996 69.8925 100.133 69.9901 100.606 69.9901C101.078 69.9901 101.485 69.8979 101.869 69.7136C102.254 69.5292 102.594 69.2852 102.869 68.9762C103.149 68.6726 103.369 68.3093 103.528 67.9081C103.687 67.5069 103.769 67.0786 103.769 66.6394C103.769 66.2273 103.693 65.8153 103.544 65.4141C103.396 65.0183 103.176 64.655 102.902 64.3405L102.907 64.346ZM102.836 66.6394C102.836 66.943 102.786 67.2521 102.682 67.5503C102.583 67.8485 102.435 68.1195 102.243 68.3581C102.05 68.5967 101.82 68.7864 101.545 68.9328C101.276 69.0792 100.963 69.1551 100.617 69.1551C100.271 69.1551 99.9797 69.0846 99.705 68.9491C99.4304 68.8135 99.1942 68.6238 99.002 68.3906C98.8098 68.1575 98.656 67.8864 98.5516 67.5828C98.4473 67.2792 98.3923 66.9593 98.3923 66.6394C98.3923 66.3195 98.4473 66.0159 98.5461 65.7177C98.6505 65.4195 98.7988 65.1484 98.991 64.9153C99.1833 64.6821 99.4139 64.4924 99.6886 64.346C99.9577 64.205 100.271 64.1291 100.617 64.1291C100.941 64.1291 101.243 64.1996 101.512 64.3351C101.781 64.4707 102.017 64.6604 102.215 64.8881C102.413 65.1159 102.567 65.387 102.671 65.6906C102.775 65.9942 102.83 66.3141 102.83 66.634L102.836 66.6394Z" fill="white"/>
    <path d="M108.295 63.3267H107.543L104.813 69.8816L104.786 69.9467H105.78L106.554 68.0328H109.268L110.036 69.9142L110.047 69.9413H111.042L108.306 63.3538L108.295 63.3267ZM109.042 67.3008H106.763L107.922 64.4598L109.048 67.3008H109.042Z" fill="white"/>
    <path d="M116.781 67.1707C116.957 67.046 117.105 66.8942 117.232 66.7207C117.353 66.5472 117.451 66.3466 117.517 66.1352C117.583 65.9183 117.616 65.696 117.616 65.4629C117.616 65.2026 117.567 64.9424 117.462 64.6875C117.364 64.4327 117.221 64.205 117.039 64.0044C116.858 63.8038 116.644 63.6357 116.391 63.5164C116.139 63.3917 115.864 63.3321 115.568 63.3321H112.689V69.9467H113.623V67.6045H115.298L116.792 69.925L116.809 69.9467H117.869L116.254 67.431C116.446 67.3713 116.622 67.29 116.781 67.1761V67.1707ZM113.623 64.1562H115.524C115.677 64.1562 115.826 64.1887 115.963 64.2592C116.1 64.3243 116.227 64.4219 116.331 64.5411C116.435 64.6604 116.518 64.8014 116.584 64.9586C116.644 65.1159 116.677 65.2839 116.677 65.4629C116.677 65.6418 116.65 65.8044 116.595 65.9617C116.54 66.1189 116.463 66.2653 116.369 66.3846C116.276 66.5038 116.161 66.6014 116.029 66.6719C115.897 66.7424 115.749 66.7749 115.578 66.7749H113.623V64.1562Z" fill="white"/>
    <path d="M124.52 64.3026C124.251 64.0044 123.91 63.7658 123.504 63.5923C123.097 63.4188 122.625 63.3321 122.092 63.3321H119.758V69.9467H122.092C122.581 69.9467 123.026 69.8654 123.427 69.7081C123.828 69.5509 124.168 69.3232 124.454 69.0358C124.734 68.7485 124.954 68.3961 125.107 67.9894C125.256 67.5828 125.333 67.1273 125.333 66.6285C125.333 66.1785 125.267 65.7448 125.129 65.349C124.998 64.9478 124.789 64.5954 124.52 64.2972V64.3026ZM124.393 66.6285C124.393 66.9864 124.344 67.3171 124.24 67.6207C124.141 67.9244 123.993 68.19 123.8 68.4069C123.608 68.6292 123.372 68.8027 123.081 68.9274C122.795 69.0521 122.46 69.1172 122.092 69.1172H120.686V64.1562H122.092C122.455 64.1562 122.784 64.2158 123.07 64.3405C123.355 64.4652 123.597 64.6333 123.795 64.8502C123.993 65.0671 124.141 65.3273 124.24 65.6309C124.339 65.9346 124.393 66.2707 124.393 66.634V66.6285Z" fill="white"/>
    <path d="M41.1551 32.2272C40.1445 31.5549 38.9142 30.991 37.4916 30.5464C36.0746 30.1073 34.4543 29.7006 32.6802 29.3374C31.0325 29.0067 29.5825 28.6597 28.3796 28.3181C27.1822 27.9765 26.1881 27.5699 25.4192 27.1036C24.6612 26.6482 24.101 26.0789 23.7494 25.412C23.3924 24.7397 23.2167 23.8885 23.2167 22.8909C23.2167 20.9173 23.9362 19.3233 25.3478 18.163C26.7703 16.9919 29.0881 16.401 32.2353 16.401C36.0416 16.401 39.0295 17.5612 41.1112 19.8546L41.2485 20.0065L42.6326 17.9082L42.5392 17.8215C41.1771 16.5365 39.6392 15.5714 37.9695 14.9425C36.2998 14.319 34.3719 13.9991 32.2408 13.9991C30.5162 13.9991 28.9179 14.1997 27.4953 14.5955C26.0673 14.9913 24.826 15.5931 23.7989 16.3739C22.7718 17.16 21.9589 18.1359 21.3822 19.2745C20.8055 20.4131 20.5144 21.736 20.5144 23.2107C20.5144 24.5662 20.7506 25.7048 21.2229 26.6048C21.6953 27.5048 22.4093 28.2801 23.3485 28.9145C24.2767 29.5434 25.4356 30.0693 26.7813 30.4814C28.116 30.888 29.6813 31.2838 31.4279 31.6471C33.1306 32.0103 34.641 32.3899 35.9098 32.7802C37.1676 33.1706 38.2331 33.6369 39.0789 34.1736C39.9138 34.705 40.5399 35.3339 40.9409 36.055C41.3418 36.7707 41.5451 37.6599 41.5451 38.69C41.5451 40.7178 40.7542 42.2521 39.1943 43.2497C37.6125 44.2582 35.388 44.7733 32.5704 44.7733C30.1097 44.7733 27.8688 44.3558 25.897 43.5317C23.9307 42.7076 22.239 41.5798 20.8769 40.1756L20.7396 40.0346L19.3115 42.1762L19.4104 42.263C22.9585 45.4944 27.3525 47.1317 32.477 47.1317C34.2346 47.1317 35.8549 46.9474 37.2884 46.5787C38.7274 46.21 39.9852 45.6624 41.0288 44.9413C42.0723 44.2202 42.8962 43.3039 43.4729 42.225C44.0496 41.1461 44.3462 39.8665 44.3462 38.4189C44.3462 36.9713 44.0661 35.7405 43.5224 34.7483C42.9731 33.7616 42.1822 32.9158 41.1661 32.238L41.1551 32.2272Z" fill="#FEBE10"/>
    <path d="M71.4625 14.975L66.1897 26.7349L61.241 14.975H58.643L64.8495 29.7223L58.5771 43.716L46.1696 14.2431H43.5771L57.3083 46.8715H59.78L74.0769 14.975H71.4625Z" fill="#FEBE10"/>
    <path d="M86.5504 14.2431L73.341 43.716L68.634 32.5579L67.2993 35.5453L72.0723 46.8715H74.5439L89.1759 14.2431H86.5504Z" fill="#FEBE10"/>
    <path d="M95.5418 14.2648H92.8779V46.8498H95.5418V14.2648Z" fill="white"/>
    <path d="M123.9 33.1055C122.867 31.685 121.472 30.6766 119.753 30.0964C121.082 29.4458 122.142 28.4699 122.916 27.2012C123.757 25.8186 124.185 24.2734 124.185 22.6143C124.185 21.6005 124.004 20.5812 123.647 19.5781C123.29 18.5805 122.774 17.6751 122.12 16.8889C121.466 16.1028 120.659 15.4576 119.72 14.9588C118.775 14.4654 117.715 14.2105 116.556 14.2105H101.133V46.839H103.797V31.5007H116.919C117.748 31.5007 118.544 31.6796 119.269 32.032C120 32.3844 120.643 32.8724 121.181 33.4742C121.719 34.076 122.142 34.7809 122.444 35.567C122.741 36.3532 122.894 37.1665 122.894 37.9906C122.894 38.8147 122.73 39.6225 122.4 40.387C122.071 41.1569 121.62 41.8563 121.065 42.4581C120.511 43.06 119.846 43.5479 119.088 43.9003C118.33 44.2528 117.49 44.4317 116.595 44.4317H106.302V46.8335H116.595C117.808 46.8335 118.978 46.6167 120.066 46.1829C121.153 45.7546 122.12 45.1474 122.927 44.3775C123.74 43.6076 124.388 42.6967 124.855 41.6666C125.322 40.6364 125.558 39.5033 125.558 38.305C125.558 36.3695 124.998 34.6182 123.894 33.0947L123.9 33.1055ZM121.109 25.2873C120.813 26.0518 120.395 26.7349 119.874 27.3096C119.352 27.8843 118.726 28.356 118.006 28.7085C117.292 29.0609 116.496 29.2398 115.633 29.2398H103.803V16.6233H115.914C116.743 16.6233 117.512 16.7913 118.193 17.1329C118.879 17.4691 119.473 17.9353 119.967 18.5046C120.461 19.0793 120.851 19.7516 121.137 20.5053C121.423 21.2589 121.565 22.0776 121.565 22.9342C121.565 23.7312 121.412 24.5228 121.115 25.2927L121.109 25.2873Z" fill="white"/>
  </g>
  <defs>
    <clipPath id="clip0_10115_36">
      <rect width="144.87" height="84" fill="white"/>
    </clipPath>
  </defs>
</svg>