<svg xmlns="http://www.w3.org/2000/svg" width="20" height="20" viewBox="0 0 20 20" fill="none">
  <path d="M4.24805 16.5H5.74805V18H4.24805C3.14492 18 2.24805 17.1031 2.24805 16V4C2.24805 2.89688 3.14492 2 4.24805 2H9.41992C9.95117 2 10.4605 2.20938 10.8355 2.58438L13.6637 5.4125C14.0387 5.7875 14.248 6.29688 14.248 6.82812V11.5H12.748V7H10.248C9.69492 7 9.24805 6.55312 9.24805 6V3.5H4.24805C3.97305 3.5 3.74805 3.725 3.74805 4V16C3.74805 16.275 3.97305 16.5 4.24805 16.5ZM7.74805 13H8.74805C9.71367 13 10.498 13.7844 10.498 14.75C10.498 15.7156 9.71367 16.5 8.74805 16.5H8.24805V17.5C8.24805 17.775 8.02305 18 7.74805 18C7.47305 18 7.24805 17.775 7.24805 17.5V16V13.5C7.24805 13.225 7.47305 13 7.74805 13ZM8.74805 15.5C9.16367 15.5 9.49805 15.1656 9.49805 14.75C9.49805 14.3344 9.16367 14 8.74805 14H8.24805V15.5H8.74805ZM11.748 13H12.748C13.5762 13 14.248 13.6719 14.248 14.5V16.5C14.248 17.3281 13.5762 18 12.748 18H11.748C11.473 18 11.248 17.775 11.248 17.5V13.5C11.248 13.225 11.473 13 11.748 13ZM12.748 17C13.023 17 13.248 16.775 13.248 16.5V14.5C13.248 14.225 13.023 14 12.748 14H12.248V17H12.748ZM15.248 13.5C15.248 13.225 15.473 13 15.748 13H17.248C17.523 13 17.748 13.225 17.748 13.5C17.748 13.775 17.523 14 17.248 14H16.248V15H17.248C17.523 15 17.748 15.225 17.748 15.5C17.748 15.775 17.523 16 17.248 16H16.248V17.5C16.248 17.775 16.023 18 15.748 18C15.473 18 15.248 17.775 15.248 17.5V15.5V13.5Z" fill="#002F54"/>
</svg>