<svg xmlns="http://www.w3.org/2000/svg" width="20" height="20" viewBox="0 0 20 20" fill="none">
  <path d="M20 18.239L15.8491 14.0881C17.0049 12.5707 17.6243 10.7125 17.6101 8.80513C17.6173 7.64684 17.3944 6.49865 16.9545 5.42714C16.5145 4.35563 15.8662 3.38212 15.0472 2.56307C14.2281 1.74402 13.2546 1.09572 12.1831 0.655778C11.1116 0.215831 9.96341 -0.00701338 8.80513 0.00016821C7.64684 -0.00701338 6.49865 0.215831 5.42714 0.655778C4.35563 1.09572 3.38212 1.74402 2.56307 2.56307C1.74402 3.38212 1.09572 4.35563 0.655778 5.42714C0.215831 6.49865 -0.00701337 7.64684 0.00016821 8.80513C-0.00701337 9.96342 0.215831 11.1116 0.655778 12.1831C1.09572 13.2546 1.74402 14.2281 2.56307 15.0472C3.38212 15.8662 4.35563 16.5145 5.42714 16.9545C6.49865 17.3944 7.64684 17.6173 8.80513 17.6101C10.7125 17.6243 12.5707 17.0049 14.0881 15.8491L18.239 20L20 18.239ZM2.51587 8.80513C2.50763 7.97692 2.66468 7.15539 2.97783 6.38862C3.29098 5.62185 3.75393 4.92525 4.33959 4.33959C4.92525 3.75393 5.62185 3.29098 6.38862 2.97783C7.15539 2.66468 7.97692 2.50763 8.80513 2.51587C9.63333 2.50763 10.4549 2.66468 11.2216 2.97783C11.9884 3.29098 12.685 3.75393 13.2707 4.33959C13.8563 4.92525 14.3193 5.62185 14.6324 6.38862C14.9456 7.15539 15.1026 7.97692 15.0944 8.80513C15.1026 9.63333 14.9456 10.4549 14.6324 11.2216C14.3193 11.9884 13.8563 12.685 13.2707 13.2707C12.685 13.8563 11.9884 14.3193 11.2216 14.6324C10.4549 14.9456 9.63333 15.1026 8.80513 15.0944C7.97692 15.1026 7.15539 14.9456 6.38862 14.6324C5.62185 14.3193 4.92525 13.8563 4.33959 13.2707C3.75393 12.685 3.29098 11.9884 2.97783 11.2216C2.66468 10.4549 2.50763 9.63333 2.51587 8.80513Z" fill="#002F54"/>
</svg>