<svg xmlns="http://www.w3.org/2000/svg" width="19" height="19" viewBox="0 0 19 19" fill="none">
  <path d="M19 17.3271L15.0566 13.3837C16.1547 11.9422 16.7431 10.1769 16.7296 8.36487C16.7364 7.26449 16.5247 6.17371 16.1068 5.15578C15.6888 4.13785 15.0729 3.21301 14.2948 2.43492C13.5167 1.65682 12.5919 1.04094 11.574 0.622989C10.556 0.205039 9.46525 -0.00666271 8.36487 0.0001598C7.26449 -0.00666271 6.17371 0.205039 5.15578 0.622989C4.13785 1.04094 3.21301 1.65682 2.43492 2.43492C1.65682 3.21301 1.04094 4.13785 0.622989 5.15578C0.205039 6.17371 -0.00666271 7.26449 0.0001598 8.36487C-0.00666271 9.46525 0.205039 10.556 0.622989 11.574C1.04094 12.5919 1.65682 13.5167 2.43492 14.2948C3.21301 15.0729 4.13785 15.6888 5.15578 16.1068C6.17371 16.5247 7.26449 16.7364 8.36487 16.7296C10.1769 16.7431 11.9422 16.1547 13.3837 15.0566L17.3271 19L19 17.3271ZM2.39008 8.36487C2.38225 7.57807 2.53145 6.79762 2.82894 6.06919C3.12643 5.34076 3.56623 4.67899 4.12261 4.12261C4.67899 3.56623 5.34076 3.12643 6.06919 2.82894C6.79762 2.53145 7.57807 2.38225 8.36487 2.39008C9.15167 2.38225 9.93212 2.53145 10.6606 2.82894C11.389 3.12643 12.0508 3.56623 12.6071 4.12261C13.1635 4.67899 13.6033 5.34076 13.9008 6.06919C14.1983 6.79762 14.3475 7.57807 14.3397 8.36487C14.3475 9.15167 14.1983 9.93212 13.9008 10.6606C13.6033 11.389 13.1635 12.0508 12.6071 12.6071C12.0508 13.1635 11.389 13.6033 10.6606 13.9008C9.93212 14.1983 9.15167 14.3475 8.36487 14.3397C7.57807 14.3475 6.79762 14.1983 6.06919 13.9008C5.34076 13.6033 4.67899 13.1635 4.12261 12.6071C3.56623 12.0508 3.12643 11.389 2.82894 10.6606C2.53145 9.93212 2.38225 9.15167 2.39008 8.36487Z" fill="#222222"/>
</svg>